<mxfile host="65bd71144e" scale="1" border="10">
    <diagram id="oimfyBDkX4A0gMBnPt3u" name="Page-1">
        <mxGraphModel dx="1068" dy="651" grid="1" gridSize="10" guides="1" tooltips="1" connect="1" arrows="1" fold="1" page="1" pageScale="1" pageWidth="827" pageHeight="1027" background="#FFFFFF" math="0" shadow="0">
            <root>
                <mxCell id="0"/>
                <mxCell id="1" parent="0"/>
                <mxCell id="36" value="" style="rounded=1;whiteSpace=wrap;html=1;dashed=1;sketch=0;strokeColor=#808080;fontFamily=Helvetica;fontSize=14;fontColor=default;fillColor=none;gradientColor=none;strokeWidth=1;dashPattern=12 12;" vertex="1" parent="1">
                    <mxGeometry x="210" y="20" width="370" height="890" as="geometry"/>
                </mxCell>
                <mxCell id="13" value="" style="rounded=1;whiteSpace=wrap;html=1;dashed=0;sketch=0;strokeColor=#000000;fontFamily=Helvetica;fontSize=10;fontColor=#232F3E;fillColor=none;gradientColor=none;" vertex="1" parent="1">
                    <mxGeometry x="310" y="40" width="250" height="150" as="geometry"/>
                </mxCell>
                <mxCell id="21" style="edgeStyle=none;html=1;strokeWidth=2;fontFamily=Helvetica;fontSize=12;fontColor=#232F3E;startArrow=none;startFill=0;" edge="1" parent="1" source="2" target="20">
                    <mxGeometry relative="1" as="geometry"/>
                </mxCell>
                <mxCell id="2" value="Amazon S3" style="sketch=0;outlineConnect=0;fontColor=#232F3E;gradientColor=none;strokeColor=#ffffff;fillColor=#232F3E;dashed=0;verticalLabelPosition=middle;verticalAlign=bottom;align=center;html=1;whiteSpace=wrap;fontSize=10;fontStyle=1;spacing=3;shape=mxgraph.aws4.productIcon;prIcon=mxgraph.aws4.s3;" vertex="1" parent="1">
                    <mxGeometry x="460" y="370" width="80" height="100" as="geometry"/>
                </mxCell>
                <mxCell id="17" style="edgeStyle=none;html=1;strokeWidth=2;fontFamily=Helvetica;fontSize=10;fontColor=#232F3E;startArrow=none;startFill=0;" edge="1" parent="1" source="3" target="2">
                    <mxGeometry relative="1" as="geometry"/>
                </mxCell>
                <mxCell id="18" style="edgeStyle=none;html=1;strokeWidth=2;fontFamily=Helvetica;fontSize=10;fontColor=#232F3E;startArrow=none;startFill=0;dashed=1;dashPattern=8 8;" edge="1" parent="1" source="3" target="5">
                    <mxGeometry relative="1" as="geometry"/>
                </mxCell>
                <mxCell id="19" value="&lt;font style=&quot;font-size: 12px;&quot;&gt;logs&lt;/font&gt;" style="edgeLabel;html=1;align=center;verticalAlign=middle;resizable=0;points=[];fontSize=10;fontFamily=Helvetica;fontColor=#232F3E;" vertex="1" connectable="0" parent="18">
                    <mxGeometry x="-0.2488" y="-4" relative="1" as="geometry">
                        <mxPoint x="-26" y="-2" as="offset"/>
                    </mxGeometry>
                </mxCell>
                <mxCell id="42" style="edgeStyle=none;html=1;strokeWidth=1;fontFamily=Helvetica;fontSize=14;fontColor=default;startArrow=none;startFill=0;dashed=1;dashPattern=12 12;strokeColor=#808080;curved=1;" edge="1" parent="1" source="3" target="20">
                    <mxGeometry relative="1" as="geometry">
                        <mxPoint x="450" y="330" as="sourcePoint"/>
                        <mxPoint x="450" y="510" as="targetPoint"/>
                        <Array as="points">
                            <mxPoint x="370" y="430"/>
                        </Array>
                    </mxGeometry>
                </mxCell>
                <mxCell id="43" value="Alternatively" style="edgeLabel;html=1;align=center;verticalAlign=middle;resizable=0;points=[];fontSize=14;fontFamily=Helvetica;fontColor=#808080;" vertex="1" connectable="0" parent="42">
                    <mxGeometry x="0.2986" y="26" relative="1" as="geometry">
                        <mxPoint x="1" as="offset"/>
                    </mxGeometry>
                </mxCell>
                <mxCell id="3" value="AWS Lambda" style="sketch=0;outlineConnect=0;fontColor=#232F3E;gradientColor=none;strokeColor=#ffffff;fillColor=#232F3E;dashed=0;verticalLabelPosition=middle;verticalAlign=bottom;align=center;html=1;whiteSpace=wrap;fontSize=10;fontStyle=1;spacing=3;shape=mxgraph.aws4.productIcon;prIcon=mxgraph.aws4.lambda;" vertex="1" parent="1">
                    <mxGeometry x="460" y="230" width="80" height="100" as="geometry"/>
                </mxCell>
                <mxCell id="25" style="edgeStyle=none;html=1;strokeWidth=2;fontFamily=Helvetica;fontSize=12;fontColor=#232F3E;startArrow=none;startFill=0;" edge="1" parent="1" source="4" target="24">
                    <mxGeometry relative="1" as="geometry"/>
                </mxCell>
                <mxCell id="4" value="Amazon SNS" style="sketch=0;outlineConnect=0;fontColor=#232F3E;gradientColor=none;strokeColor=#ffffff;fillColor=#232F3E;dashed=0;verticalLabelPosition=middle;verticalAlign=bottom;align=center;html=1;whiteSpace=wrap;fontSize=10;fontStyle=1;spacing=3;shape=mxgraph.aws4.productIcon;prIcon=mxgraph.aws4.sns;" vertex="1" parent="1">
                    <mxGeometry x="460" y="640" width="80" height="100" as="geometry"/>
                </mxCell>
                <mxCell id="5" value="Amazon CloudWatch" style="sketch=0;outlineConnect=0;fontColor=#232F3E;gradientColor=none;strokeColor=#ffffff;fillColor=#232F3E;dashed=0;verticalLabelPosition=middle;verticalAlign=bottom;align=center;html=1;whiteSpace=wrap;fontSize=10;fontStyle=1;spacing=3;shape=mxgraph.aws4.productIcon;prIcon=mxgraph.aws4.cloudwatch;" vertex="1" parent="1">
                    <mxGeometry x="240" y="400" width="80" height="110" as="geometry"/>
                </mxCell>
                <mxCell id="30" style="edgeStyle=none;html=1;strokeWidth=2;fontFamily=Helvetica;fontSize=14;fontColor=#232F3E;startArrow=none;startFill=0;" edge="1" parent="1" source="6" target="3">
                    <mxGeometry relative="1" as="geometry"/>
                </mxCell>
                <mxCell id="6" value="" style="shape=image;verticalLabelPosition=bottom;labelBackgroundColor=default;verticalAlign=top;aspect=fixed;imageAspect=0;image=https://raw.githubusercontent.com/PokeAPI/media/master/logo/pokeapi_256.png;" vertex="1" parent="1">
                    <mxGeometry x="19.999999999999993" y="230" width="249.51" height="100" as="geometry"/>
                </mxCell>
                <mxCell id="15" style="edgeStyle=none;html=1;fontFamily=Helvetica;fontSize=10;fontColor=#232F3E;strokeWidth=2;exitX=0.75;exitY=1;exitDx=0;exitDy=0;" edge="1" parent="1" source="13" target="3">
                    <mxGeometry relative="1" as="geometry">
                        <mxPoint x="480" y="230" as="sourcePoint"/>
                    </mxGeometry>
                </mxCell>
                <mxCell id="7" value="Event (time-&#10;based)" style="sketch=0;outlineConnect=0;fontColor=#232F3E;gradientColor=none;strokeColor=#232F3E;fillColor=#ffffff;dashed=0;verticalLabelPosition=bottom;verticalAlign=top;align=center;html=1;fontSize=12;fontStyle=0;aspect=fixed;shape=mxgraph.aws4.resourceIcon;resIcon=mxgraph.aws4.event_time_based;" vertex="1" parent="1">
                    <mxGeometry x="470" y="70" width="60" height="60" as="geometry"/>
                </mxCell>
                <mxCell id="14" value="" style="group" vertex="1" connectable="0" parent="1">
                    <mxGeometry x="340" y="60" width="80" height="110" as="geometry"/>
                </mxCell>
                <mxCell id="10" value="" style="sketch=0;points=[[0,0,0],[0.25,0,0],[0.5,0,0],[0.75,0,0],[1,0,0],[0,1,0],[0.25,1,0],[0.5,1,0],[0.75,1,0],[1,1,0],[0,0.25,0],[0,0.5,0],[0,0.75,0],[1,0.25,0],[1,0.5,0],[1,0.75,0]];outlineConnect=0;fontColor=#232F3E;gradientColor=none;strokeColor=#ffffff;fillColor=#232F3E;dashed=0;verticalLabelPosition=middle;verticalAlign=middle;align=center;html=1;whiteSpace=wrap;fontSize=10;fontStyle=1;spacing=3;shape=mxgraph.aws4.productIcon;prIcon=mxgraph.aws4.lambda;shape=mxgraph.aws4.resourceIcon;resIcon=mxgraph.aws4.eventbridge;fontFamily=Helvetica;labelPosition=center;" vertex="1" parent="14">
                    <mxGeometry width="80" height="80" as="geometry"/>
                </mxCell>
                <mxCell id="11" value="Amazon EventBridge" style="rounded=0;whiteSpace=wrap;html=1;dashed=0;sketch=0;strokeColor=#ffffff;fontFamily=Helvetica;fontSize=10;fontColor=#232F3E;fillColor=#FFFFFF;gradientColor=none;fontStyle=1;verticalAlign=bottom;" vertex="1" parent="14">
                    <mxGeometry y="80" width="80" height="30" as="geometry"/>
                </mxCell>
                <mxCell id="22" style="edgeStyle=none;html=1;strokeWidth=2;fontFamily=Helvetica;fontSize=12;fontColor=#232F3E;startArrow=none;startFill=0;" edge="1" parent="1" source="20" target="4">
                    <mxGeometry relative="1" as="geometry"/>
                </mxCell>
                <mxCell id="26" style="edgeStyle=none;html=1;strokeWidth=2;fontFamily=Helvetica;fontSize=12;fontColor=#232F3E;startArrow=none;startFill=0;dashed=1;dashPattern=8 8;" edge="1" parent="1" source="20" target="5">
                    <mxGeometry relative="1" as="geometry"/>
                </mxCell>
                <mxCell id="27" value="logs" style="edgeLabel;html=1;align=center;verticalAlign=middle;resizable=0;points=[];fontSize=12;fontFamily=Helvetica;fontColor=#232F3E;" vertex="1" connectable="0" parent="26">
                    <mxGeometry x="0.0013" relative="1" as="geometry">
                        <mxPoint x="-9" y="8" as="offset"/>
                    </mxGeometry>
                </mxCell>
                <mxCell id="20" value="AWS Lambda" style="sketch=0;outlineConnect=0;fontColor=#232F3E;gradientColor=none;strokeColor=#ffffff;fillColor=#232F3E;dashed=0;verticalLabelPosition=middle;verticalAlign=bottom;align=center;html=1;whiteSpace=wrap;fontSize=10;fontStyle=1;spacing=3;shape=mxgraph.aws4.productIcon;prIcon=mxgraph.aws4.lambda;fontFamily=Helvetica;" vertex="1" parent="1">
                    <mxGeometry x="460" y="500" width="80" height="100" as="geometry"/>
                </mxCell>
                <mxCell id="24" value="Investors" style="sketch=0;outlineConnect=0;fontColor=#232F3E;gradientColor=none;strokeColor=#232F3E;fillColor=#ffffff;dashed=0;verticalLabelPosition=bottom;verticalAlign=top;align=center;html=1;fontSize=12;fontStyle=0;aspect=fixed;shape=mxgraph.aws4.resourceIcon;resIcon=mxgraph.aws4.users;fontFamily=Helvetica;" vertex="1" parent="1">
                    <mxGeometry x="460" y="780" width="80" height="80" as="geometry"/>
                </mxCell>
                <mxCell id="28" value="Storing logs and setting up alerting in CloudWatch" style="text;html=1;strokeColor=none;fillColor=none;align=center;verticalAlign=middle;whiteSpace=wrap;rounded=0;dashed=0;sketch=0;fontFamily=Helvetica;fontSize=14;fontColor=#232F3E;" vertex="1" parent="1">
                    <mxGeometry x="150" y="520" width="150" height="70" as="geometry"/>
                </mxCell>
                <mxCell id="29" value="Since the PokéApi does not have webhooks a chron trigger could be set up to pull updates" style="text;html=1;strokeColor=none;fillColor=none;align=center;verticalAlign=middle;whiteSpace=wrap;rounded=0;dashed=0;sketch=0;fontFamily=Helvetica;fontSize=14;fontColor=#232F3E;" vertex="1" parent="1">
                    <mxGeometry x="610" y="50" width="190" height="110" as="geometry"/>
                </mxCell>
                <mxCell id="32" value="&lt;span style=&quot;&quot;&gt;A lambda could pull the data and place it in whatever data storage is best fit for the project&lt;/span&gt;" style="text;html=1;strokeColor=none;fillColor=none;align=center;verticalAlign=middle;whiteSpace=wrap;rounded=0;dashed=0;sketch=0;fontFamily=Helvetica;fontSize=14;fontColor=#232F3E;" vertex="1" parent="1">
                    <mxGeometry x="610" y="210" width="190" height="110" as="geometry"/>
                </mxCell>
                <mxCell id="33" value="The desired data storage. Could be anything that best fits the requirements. I went with the simplest solution for starters." style="text;html=1;strokeColor=none;fillColor=none;align=center;verticalAlign=middle;whiteSpace=wrap;rounded=0;dashed=0;sketch=0;fontFamily=Helvetica;fontSize=14;fontColor=#232F3E;" vertex="1" parent="1">
                    <mxGeometry x="590" y="360" width="230" height="100" as="geometry"/>
                </mxCell>
                <mxCell id="34" value="A second lambda that is triggered by changes in the data storage (or by StepFunctions). Pulls the latest version, prepares a message with differences." style="text;html=1;strokeColor=none;fillColor=none;align=center;verticalAlign=middle;whiteSpace=wrap;rounded=0;dashed=0;sketch=0;fontFamily=Helvetica;fontSize=14;fontColor=#232F3E;" vertex="1" parent="1">
                    <mxGeometry x="602.5" y="485" width="205" height="110" as="geometry"/>
                </mxCell>
                <mxCell id="35" value="Output of differences generated by the Lambda above are forwarded via SNS topic" style="text;html=1;strokeColor=none;fillColor=none;align=center;verticalAlign=middle;whiteSpace=wrap;rounded=0;dashed=0;sketch=0;fontFamily=Helvetica;fontSize=14;fontColor=#232F3E;" vertex="1" parent="1">
                    <mxGeometry x="618.75" y="640" width="172.5" height="80" as="geometry"/>
                </mxCell>
                <mxCell id="40" value="AWS Step Functions" style="sketch=0;outlineConnect=0;fontColor=#232F3E;gradientColor=none;strokeColor=#ffffff;fillColor=#232F3E;dashed=0;verticalLabelPosition=middle;verticalAlign=bottom;align=center;html=1;whiteSpace=wrap;fontSize=10;fontStyle=1;spacing=3;shape=mxgraph.aws4.productIcon;prIcon=mxgraph.aws4.step_functions;fontFamily=Helvetica;" vertex="1" parent="1">
                    <mxGeometry x="210" y="800" width="80" height="110" as="geometry"/>
                </mxCell>
                <mxCell id="41" value="The resources could be orchestrated in StepFunctions" style="text;html=1;strokeColor=none;fillColor=none;align=center;verticalAlign=middle;whiteSpace=wrap;rounded=0;dashed=0;sketch=0;fontFamily=Helvetica;fontSize=14;fontColor=default;" vertex="1" parent="1">
                    <mxGeometry x="50" y="800" width="140" height="80" as="geometry"/>
                </mxCell>
            </root>
        </mxGraphModel>
    </diagram>
</mxfile>